PathFileType	4	(X/Y/Z)	Patient4_TMGait_0pt8_01_right_46.trc.trc
DataRate	CameraRate	NumFrames	NumMarkers	Units	OrigDataRate	OrigDataStartFrame	OrigNumFrames
92.105263157895	92.105263157895	5	33	mm	92.105263157895	89	       141
Frame#	Time	Sacral			L.Shoulder			Chest			R.Shoulder			Neck			R.ASIS			L.ASIS			R.Thigh.Superior			R.Thigh.Lateral			R.Thigh.Inferior			R.Patella			L.Thigh.Superior			L.Thigh.Lateral			L.Thigh.Inferior			L.Patella			L.Shank.Superior			L.Shank.Lateral			L.Shank.Inferior			R.Shank.Superior			R.Shank.Lateral			R.Shank.Inferior			R.Heel			R.Midfoot.Superior			R.Midfoot.Lateral			R.Toe			L.Heel			L.Midfoot.Lateral			L.Midfoot.Superior			L.Toe			L.Elbow			L.Wrist			R.Elbow			R.Wrist			
		X1	Y1	Z1	X2	Y2	Z2	X3	Y3	Z3	X4	Y4	Z4	X5	Y5	Z5	X6	Y6	Z6	X7	Y7	Z7	X8	Y8	Z8	X9	Y9	Z9	X10	Y10	Z10	X11	Y11	Z11	X12	Y12	Z12	X13	Y13	Z13	X14	Y14	Z14	X15	Y15	Z15	X16	Y16	Z16	X17	Y17	Z17	X18	Y18	Z18	X19	Y19	Z19	X20	Y20	Z20	X21	Y21	Z21	X22	Y22	Z22	X23	Y23	Z23	X24	Y24	Z24	X25	Y25	Z25	X26	Y26	Z26	X27	Y27	Z27	X28	Y28	Z28	X29	Y29	Z29	X30	Y30	Z30	X31	Y31	Z31	X32	Y32	Z32	X33	Y33	Z33	

89	52.775428571429	881.841345413704	1002.467731581912	476.255543258737	1048.993642343575	1422.775887616062	281.783212536999	1166.621078322076	1353.152846617129	432.703647902080	1103.159456779702	1432.468728026747	612.212797733747	1048.646679161870	1486.146301623518	437.652458688468	1110.350613838321	928.850335062451	577.322583349741	1084.342737074854	953.546117949185	305.625389150460	1143.613060745637	724.496284135677	556.831366310314	1061.876328332138	616.714790567789	624.237433384003	1141.470285174270	555.128370333264	550.121841798586	1126.192533975870	444.229085054706	571.001496464419	1156.262994849544	761.533131656589	324.854003266550	1080.376932572795	635.795516909895	269.980647668640	1182.693442669917	570.468339278338	323.455313136043	1194.578603487931	500.531186907712	330.810531906918	1171.406443120477	424.953136846122	325.444587846916	1085.801143522683	304.329221791090	281.238895080459	1151.688873507356	197.635095127500	347.830281590315	1040.923744383287	383.575008276011	574.657454633667	913.449109995813	359.700304489534	631.707429006578	889.249427960422	252.610988878198	582.086695520254	681.019453869790	203.802216860333	543.946388156533	847.137411712847	146.079075396135	601.154774167888	734.951139072787	150.406191417774	625.747861155694	905.800625428805	39.102577766714	638.832223168357	1036.176857089348	38.210389749788	400.312033799072	1104.147931920693	36.048992585223	313.964047107509	1187.513172084530	98.709428842121	334.935411402172	1314.141211228799	50.299268688440	298.195200609151	953.526170250766	1077.504389396110	188.178304858160	951.733834064196	817.683382701182	193.715761474415	1203.669173668019	1099.452708101596	716.138452562573	1428.602504523133	1177.332532920148	639.382088889802	
90	52.786285714286	880.779428316397	1004.032217868010	473.931575117656	1050.428591452809	1424.290845935339	279.871623677123	1166.481712677044	1354.557779600277	431.968287778293	1101.434498409147	1433.959345734304	610.905359675432	1048.531393410953	1487.771245034895	435.723577922410	1109.076760801585	930.520751866714	576.283789563568	1084.013062645372	955.100882669006	304.429563188329	1148.213146825041	728.874392806330	555.892913329620	1069.963616881934	619.163976725510	623.703825196946	1151.702317628563	559.384377183806	549.896556549801	1138.551840856823	447.331159111234	570.984942242256	1153.228461948708	760.706919330156	322.516048361372	1075.314636504202	636.213973463875	268.800235912213	1176.657517610175	569.564059091801	322.266389580396	1187.442396856257	499.757106629585	329.687214874707	1163.928491349014	424.554124189772	324.472968952935	1077.678917357963	304.243200001535	280.611294344065	1143.199024165914	197.454402257408	347.385261822633	1052.091032959722	386.711995659844	573.885549126245	923.387911899841	366.274122781949	630.044315151151	896.943912344681	259.761665682577	580.695217922494	688.068952791612	217.398949025663	541.112135999873	851.903037188673	153.783327635992	599.518270533213	739.507663299123	161.923599090533	623.280618285039	906.546387143542	42.794262443617	637.531161678155	1027.361213086167	38.191010976601	400.254580547763	1095.304259256352	35.949420171537	313.877413904931	1178.706313267727	98.590563227989	334.779606007056	1305.333162129684	50.107391353803	298.081481583655	962.862143309007	1077.020395079472	183.494958108775	971.427191489754	817.111759154963	187.929489621264	1190.387235352757	1096.954207508665	715.594660986825	1419.809645746726	1162.056240133257	640.126948253139	
91	52.797142857143	879.600232384785	1005.492771617516	471.683736175850	1051.841512732841	1425.708670049869	278.105393228127	1166.259505454872	1355.839764744520	431.397612808664	1099.593479325658	1435.279679106598	609.771876283237	1048.387159388210	1489.294161624370	433.986886664354	1107.735578965593	932.158558390219	575.324567376867	1083.580129860014	956.563907631408	303.286885272529	1152.549209319501	733.485775299777	554.922255446748	1077.887763910217	622.015546149529	623.287881007045	1161.574491056954	564.130998668678	549.713997266809	1150.761930171503	451.036186278309	570.983201247788	1150.089637050188	759.959789129849	320.619180591718	1070.372189756086	636.702779074501	267.726742758082	1170.583703112001	568.725332016833	321.351776690562	1180.243626722316	499.017996745449	328.809695956294	1156.443582021233	424.197575036786	323.679829710006	1069.644316427735	304.194693262065	280.064135652822	1134.752251359208	197.286928638398	347.028723450509	1063.386105060787	390.255563043841	573.233083834341	933.701519352933	372.639856988398	628.579979754495	905.442976554933	266.671940885190	579.395786585611	696.228035448115	229.530010383480	538.561759300652	857.942622592898	161.182170164080	597.770011352568	745.552583136911	172.309416802740	620.911296544707	909.357884885885	47.094158531203	635.948620158588	1018.554543720204	38.188121991327	400.192356677225	1086.472941083244	35.864521497771	313.796982488397	1169.939120081530	98.449491237671	334.653009842321	1296.547991874698	49.851798604496	297.980454569559	972.441221762013	1076.689529396649	178.876838375316	991.651608626784	817.116305958950	182.201560372316	1176.753344747406	1094.737015472424	715.175461367632	1410.379294906929	1145.637769142683	641.340102939908	
92	52.808000000000	878.350633999175	1006.839733438740	469.509475819538	1053.185612689811	1427.031951574141	276.496540505881	1165.945074022685	1357.009347466351	430.974066048694	1097.654495903390	1436.426367127163	608.805301338394	1048.206980748453	1490.710227967639	432.445747059333	1106.348282786034	933.772393402056	574.400547918683	1083.079113474224	957.926178555476	302.175762090725	1156.579947398164	738.282605452948	553.875519099474	1085.599662702417	625.232603699136	622.955604516082	1171.039901752962	569.317406336154	549.536983902810	1162.763412355282	455.296258249540	570.999724872460	1146.933217406589	759.294235761209	319.142519374557	1065.573902974639	637.229103038599	266.772743539013	1164.539151444033	567.934830397420	320.676105129394	1173.071236124752	498.311237350897	328.180284979157	1149.026536023935	423.874086769876	323.065254478288	1061.735988192971	304.188992441773	279.629348655338	1126.381728505136	197.124740114646	346.765830566021	1074.752631588998	394.167975654728	572.729463153760	944.327352641601	378.679958522294	627.366084056848	914.724468032104	273.178924702020	578.259380314799	705.403428003161	239.985073385683	536.418227969034	865.280271778044	167.997539866361	595.999802672290	753.040201524952	181.300108996477	618.749902282138	914.278149015023	51.707689950392	634.136463000650	1009.765091193724	38.199655969165	400.126790571409	1077.662362473405	35.799576475024	313.726926742879	1161.212784113772	98.295167300572	334.564269972016	1287.789434895563	49.556774731849	297.893203532860	982.267964432668	1076.529118472568	174.348250206495	1012.324136250186	817.752731555641	176.570202216659	1162.903552563585	1092.841983436030	714.874121054659	1400.228626291982	1128.160155754041	643.049666926339	
93	52.818857142857	877.076659500408	1008.068127243635	467.410744171401	1054.422324340656	1428.269710082546	275.052468466654	1165.533915310529	1358.081871681466	430.678649146914	1095.633439318761	1437.402779695117	607.993405545660	1047.983857229447	1492.018184077424	431.096690694006	1104.932010068908	935.370039619754	573.479858174225	1082.543070565903	959.179340588461	301.088021529150	1160.285922894164	743.217340806237	552.734168006139	1093.065485880457	628.767223972081	622.676932333713	1180.075202625945	574.882167270359	549.333804749467	1174.510417850213	460.055366438412	571.022879521616	1143.830051449102	758.695102562629	318.047412548881	1060.925861040869	637.761576055384	265.942937800868	1158.570704508774	567.170103310249	320.202457477893	1165.989634026788	497.628823108157	327.790237869332	1141.728322796033	423.571811564856	322.626389797292	1053.979089875762	304.224463962461	279.319859326265	1118.105925926590	196.960133065305	346.598418695752	1086.145780213135	398.400907262285	572.384381714540	955.214803210382	384.287809469448	626.436069224783	924.757313088297	279.140463093426	577.340486077546	715.505383795508	248.626399920315	534.779817670513	873.917899629310	173.998776728781	594.305841761327	761.906267692740	188.711438802460	616.897965712228	921.291691917867	56.309878628804	632.176284414033	1000.996349702858	38.223017352302	400.060957321558	1068.876149434512	35.756398493687	313.671331953612	1152.523970474444	98.134389555297	334.518540589734	1279.058030272254	49.240316824970	297.820531793267	992.331698849074	1076.570015626947	169.931744875108	1033.362470222171	819.080537609261	171.074746215984	1148.976125800888	1091.304881371075	714.683763491593	1389.266916316877	1109.731990322165	645.274949213272	
